<?xml version="1.0" encoding="UTF-8" standalone="no"?><svg xmlns="http://www.w3.org/2000/svg" xmlns:xlink="http://www.w3.org/1999/xlink" contentScriptType="application/ecmascript" contentStyleType="text/css" height="325px" preserveAspectRatio="none" style="width:170px;height:325px;" version="1.1" viewBox="0 0 170 325" width="170px" zoomAndPan="magnify"><defs><filter height="300%" id="fct0cxt94edo4" width="300%" x="-1" y="-1"><feGaussianBlur result="blurOut" stdDeviation="2.0"/><feColorMatrix in="blurOut" result="blurOut2" type="matrix" values="0 0 0 0 0 0 0 0 0 0 0 0 0 0 0 0 0 0 .4 0"/><feOffset dx="4.0" dy="4.0" in="blurOut2" result="blurOut3"/><feBlend in="SourceGraphic" in2="blurOut3" mode="normal"/></filter></defs><g><text fill="#000000" font-family="sans-serif" font-size="18" lengthAdjust="spacingAndGlyphs" textLength="146" x="12" y="26.708">Read air quality</text><ellipse cx="83" cy="40.9531" fill="#000000" filter="url(#fct0cxt94edo4)" rx="10" ry="10" style="stroke: none; stroke-width: 1.0;"/><rect fill="#FEFECE" filter="url(#fct0cxt94edo4)" height="33.9688" rx="12.5" ry="12.5" style="stroke: #A80036; stroke-width: 1.5;" width="124" x="21" y="70.9531"/><text fill="#000000" font-family="sans-serif" font-size="12" lengthAdjust="spacingAndGlyphs" textLength="104" x="31" y="92.0918">Wake up SDS011</text><rect fill="#FEFECE" filter="url(#fct0cxt94edo4)" height="33.9688" rx="12.5" ry="12.5" style="stroke: #A80036; stroke-width: 1.5;" width="122" x="22" y="124.9219"/><text fill="#000000" font-family="sans-serif" font-size="12" lengthAdjust="spacingAndGlyphs" textLength="102" x="32" y="146.0605">Wait 30 seconds</text><rect fill="#FEFECE" filter="url(#fct0cxt94edo4)" height="33.9688" rx="12.5" ry="12.5" style="stroke: #A80036; stroke-width: 1.5;" width="131" x="17.5" y="178.8906"/><text fill="#000000" font-family="sans-serif" font-size="12" lengthAdjust="spacingAndGlyphs" textLength="111" x="27.5" y="200.0293">Read SDS011 data</text><rect fill="#FEFECE" filter="url(#fct0cxt94edo4)" height="33.9688" rx="12.5" ry="12.5" style="stroke: #A80036; stroke-width: 1.5;" width="106" x="30" y="232.8594"/><text fill="#000000" font-family="sans-serif" font-size="12" lengthAdjust="spacingAndGlyphs" textLength="86" x="40" y="253.998">Sleep SDS011</text><ellipse cx="83" cy="297.8281" fill="#FFFFFF" filter="url(#fct0cxt94edo4)" rx="11" ry="11" style="stroke: #000000; stroke-width: 1.0;"/><ellipse cx="83" cy="297.8281" fill="#000000" rx="6" ry="6" style="stroke: #7F7F7F; stroke-width: 1.0;"/><line style="stroke: #A80036; stroke-width: 1.5;" x1="83" x2="83" y1="50.9531" y2="70.9531"/><polygon fill="#A80036" points="79,60.9531,83,70.9531,87,60.9531,83,64.9531" style="stroke: #A80036; stroke-width: 1.0;"/><line style="stroke: #A80036; stroke-width: 1.5;" x1="83" x2="83" y1="104.9219" y2="124.9219"/><polygon fill="#A80036" points="79,114.9219,83,124.9219,87,114.9219,83,118.9219" style="stroke: #A80036; stroke-width: 1.0;"/><line style="stroke: #A80036; stroke-width: 1.5;" x1="83" x2="83" y1="158.8906" y2="178.8906"/><polygon fill="#A80036" points="79,168.8906,83,178.8906,87,168.8906,83,172.8906" style="stroke: #A80036; stroke-width: 1.0;"/><line style="stroke: #A80036; stroke-width: 1.5;" x1="83" x2="83" y1="212.8594" y2="232.8594"/><polygon fill="#A80036" points="79,222.8594,83,232.8594,87,222.8594,83,226.8594" style="stroke: #A80036; stroke-width: 1.0;"/><line style="stroke: #A80036; stroke-width: 1.5;" x1="83" x2="83" y1="266.8281" y2="286.8281"/><polygon fill="#A80036" points="79,276.8281,83,286.8281,87,276.8281,83,280.8281" style="stroke: #A80036; stroke-width: 1.0;"/><!--MD5=[bc53e68223a081a168b76979056273a8]
@startuml
title Read air quality

start

:Wake up SDS011;
:Wait 30 seconds;
:Read SDS011 data;
:Sleep SDS011;

stop
@enduml

PlantUML version 1.2020.20beta13(Unknown compile time)
(GPL source distribution)
Java Runtime: Java(TM) SE Runtime Environment
JVM: Java HotSpot(TM) 64-Bit Server VM
Default Encoding: UTF-8
Language: en
Country: US
--></g></svg>