<?xml version="1.0" encoding="UTF-8" standalone="no"?><svg xmlns="http://www.w3.org/2000/svg" xmlns:xlink="http://www.w3.org/1999/xlink" contentScriptType="application/ecmascript" contentStyleType="text/css" height="927px" preserveAspectRatio="none" style="width:421px;height:927px;" version="1.1" viewBox="0 0 421 927" width="421px" zoomAndPan="magnify"><defs><filter height="300%" id="f1td8vg3kahq1t" width="300%" x="-1" y="-1"><feGaussianBlur result="blurOut" stdDeviation="2.0"/><feColorMatrix in="blurOut" result="blurOut2" type="matrix" values="0 0 0 0 0 0 0 0 0 0 0 0 0 0 0 0 0 0 .4 0"/><feOffset dx="4.0" dy="4.0" in="blurOut2" result="blurOut3"/><feBlend in="SourceGraphic" in2="blurOut3" mode="normal"/></filter></defs><g><text fill="#000000" font-family="sans-serif" font-size="18" lengthAdjust="spacingAndGlyphs" textLength="205" x="107.375" y="26.708">Weather Station cycle</text><ellipse cx="198.25" cy="40.9531" fill="#000000" filter="url(#f1td8vg3kahq1t)" rx="10" ry="10" style="stroke: none; stroke-width: 1.0;"/><rect fill="#FEFECE" filter="url(#f1td8vg3kahq1t)" height="33.9688" rx="12.5" ry="12.5" style="stroke: #A80036; stroke-width: 1.5;" width="48" x="174.25" y="70.9531"/><text fill="#000000" font-family="sans-serif" font-size="12" lengthAdjust="spacingAndGlyphs" textLength="28" x="184.25" y="92.0918">Boot</text><rect fill="#FFFFFF" filter="url(#f1td8vg3kahq1t)" height="156.2656" style="stroke: #000000; stroke-width: 2.0;" width="335" x="11" y="114.9219"/><path d="M64,114.9219 L64,124.2188 L54,134.2188 L11,134.2188 " fill="none" style="stroke: #000000; stroke-width: 2.0;"/><text fill="#000000" font-family="sans-serif" font-size="14" lengthAdjust="spacingAndGlyphs" textLength="43" x="14" y="128.917">Setup</text><polygon fill="#FEFECE" filter="url(#f1td8vg3kahq1t)" points="153.75,151.2188,242.75,151.2188,254.75,163.2188,242.75,175.2188,153.75,175.2188,141.75,163.2188,153.75,151.2188" style="stroke: #A80036; stroke-width: 1.5;"/><text fill="#000000" font-family="sans-serif" font-size="11" lengthAdjust="spacingAndGlyphs" textLength="89" x="153.75" y="167.0269">Connect to WiFi</text><text fill="#000000" font-family="sans-serif" font-size="11" lengthAdjust="spacingAndGlyphs" textLength="45" x="96.75" y="160.6245">success</text><text fill="#000000" font-family="sans-serif" font-size="11" lengthAdjust="spacingAndGlyphs" textLength="36" x="254.75" y="160.6245">failure</text><rect fill="#FEFECE" filter="url(#f1td8vg3kahq1t)" height="33.9688" rx="12.5" ry="12.5" style="stroke: #A80036; stroke-width: 1.5;" width="189" x="23" y="185.2188"/><text fill="#000000" font-family="sans-serif" font-size="12" lengthAdjust="spacingAndGlyphs" textLength="169" x="33" y="206.3574">Set up system configuration</text><rect fill="#FEFECE" filter="url(#f1td8vg3kahq1t)" height="33.9688" rx="12.5" ry="12.5" style="stroke: #A80036; stroke-width: 1.5;" width="94" x="232" y="185.2188"/><text fill="#000000" font-family="sans-serif" font-size="12" lengthAdjust="spacingAndGlyphs" textLength="74" x="242" y="206.3574">Hard reboot</text><ellipse cx="279" cy="249.1875" fill="#FFFFFF" filter="url(#f1td8vg3kahq1t)" rx="10" ry="10" style="stroke: #000000; stroke-width: 1.5;"/><line style="stroke: #000000; stroke-width: 2.5;" x1="272.8128" x2="285.1872" y1="243.0003" y2="255.3747"/><line style="stroke: #000000; stroke-width: 2.5;" x1="285.1872" x2="272.8128" y1="243.0003" y2="255.3747"/><rect fill="#FFFFFF" filter="url(#f1td8vg3kahq1t)" height="629.2344" style="stroke: #000000; stroke-width: 2.0;" width="350.5" x="54.25" y="281.1875"/><path d="M162.25,281.1875 L162.25,290.4844 L152.25,300.4844 L54.25,300.4844 " fill="none" style="stroke: #000000; stroke-width: 2.0;"/><text fill="#000000" font-family="sans-serif" font-size="14" lengthAdjust="spacingAndGlyphs" textLength="98" x="57.25" y="295.1826">Capture Loop</text><rect fill="#FEFECE" filter="url(#f1td8vg3kahq1t)" height="33.9688" rx="12.5" ry="12.5" style="stroke: #A80036; stroke-width: 1.5;" width="103" x="146.75" y="361.4844"/><text fill="#000000" font-family="sans-serif" font-size="12" lengthAdjust="spacingAndGlyphs" textLength="83" x="156.75" y="382.623">Read BME280</text><rect fill="#FEFECE" filter="url(#f1td8vg3kahq1t)" height="33.9688" rx="12.5" ry="12.5" style="stroke: #A80036; stroke-width: 1.5;" width="95" x="150.75" y="415.4531"/><text fill="#000000" font-family="sans-serif" font-size="12" lengthAdjust="spacingAndGlyphs" textLength="75" x="160.75" y="436.5918">Read Rainfall</text><rect fill="#FEFECE" filter="url(#f1td8vg3kahq1t)" height="33.9688" rx="12.5" ry="12.5" style="stroke: #A80036; stroke-width: 1.5;" width="71" x="162.75" y="469.4219"/><text fill="#000000" font-family="sans-serif" font-size="12" lengthAdjust="spacingAndGlyphs" textLength="51" x="172.75" y="490.5605">Read UV</text><path d="M280.75,513.3906 L280.75,537.0898 L260.75,541.0898 L280.75,545.0898 L280.75,568.7891 A0,0 0 0 0 280.75,568.7891 L376.75,568.7891 A0,0 0 0 0 376.75,568.7891 L376.75,523.3906 L366.75,513.3906 L280.75,513.3906 A0,0 0 0 0 280.75,513.3906 " fill="#FBFB77" filter="url(#f1td8vg3kahq1t)" style="stroke: #A80036; stroke-width: 1.0;"/><path d="M366.75,513.3906 L366.75,523.3906 L376.75,523.3906 L366.75,513.3906 " fill="#FBFB77" style="stroke: #A80036; stroke-width: 1.0;"/><text fill="#000000" font-family="sans-serif" font-size="13" lengthAdjust="spacingAndGlyphs" textLength="52" x="286.75" y="530.4575">Refer to</text><text fill="#000000" font-family="sans-serif" font-size="13" lengthAdjust="spacingAndGlyphs" textLength="75" x="286.75" y="545.5903">Wind speed</text><text fill="#000000" font-family="sans-serif" font-size="13" lengthAdjust="spacingAndGlyphs" textLength="53" x="286.75" y="560.7231">diagram</text><rect fill="#FEFECE" filter="url(#f1td8vg3kahq1t)" height="33.9688" rx="12.5" ry="12.5" style="stroke: #A80036; stroke-width: 1.5;" width="125" x="135.75" y="524.1055"/><text fill="#000000" font-family="sans-serif" font-size="12" lengthAdjust="spacingAndGlyphs" textLength="105" x="145.75" y="545.2441">Read wind speed</text><path d="M274.25,578.7891 L274.25,602.4883 L254.25,606.4883 L274.25,610.4883 L274.25,634.1875 A0,0 0 0 0 274.25,634.1875 L359.25,634.1875 A0,0 0 0 0 359.25,634.1875 L359.25,588.7891 L349.25,578.7891 L274.25,578.7891 A0,0 0 0 0 274.25,578.7891 " fill="#FBFB77" filter="url(#f1td8vg3kahq1t)" style="stroke: #A80036; stroke-width: 1.0;"/><path d="M349.25,578.7891 L349.25,588.7891 L359.25,588.7891 L349.25,578.7891 " fill="#FBFB77" style="stroke: #A80036; stroke-width: 1.0;"/><text fill="#000000" font-family="sans-serif" font-size="13" lengthAdjust="spacingAndGlyphs" textLength="52" x="280.25" y="595.856">Refer to</text><text fill="#000000" font-family="sans-serif" font-size="13" lengthAdjust="spacingAndGlyphs" textLength="64" x="280.25" y="610.9888">Air quality</text><text fill="#000000" font-family="sans-serif" font-size="13" lengthAdjust="spacingAndGlyphs" textLength="53" x="280.25" y="626.1216">diagram</text><rect fill="#FEFECE" filter="url(#f1td8vg3kahq1t)" height="33.9688" rx="12.5" ry="12.5" style="stroke: #A80036; stroke-width: 1.5;" width="112" x="142.25" y="589.5039"/><text fill="#000000" font-family="sans-serif" font-size="12" lengthAdjust="spacingAndGlyphs" textLength="92" x="152.25" y="610.6426">Read air quality</text><rect fill="#FFFFFF" filter="url(#f1td8vg3kahq1t)" height="210.2344" style="stroke: #000000; stroke-width: 2.0;" width="274.5" x="64.25" y="644.1875"/><path d="M174.25,644.1875 L174.25,653.4844 L164.25,663.4844 L64.25,663.4844 " fill="none" style="stroke: #000000; stroke-width: 2.0;"/><text fill="#000000" font-family="sans-serif" font-size="14" lengthAdjust="spacingAndGlyphs" textLength="100" x="67.25" y="658.1826">Transmit data</text><rect fill="#FEFECE" filter="url(#f1td8vg3kahq1t)" height="33.9688" rx="12.5" ry="12.5" style="stroke: #A80036; stroke-width: 1.5;" width="145" x="125.75" y="680.4844"/><text fill="#000000" font-family="sans-serif" font-size="12" lengthAdjust="spacingAndGlyphs" textLength="125" x="135.75" y="701.623">Assemble JSON blob</text><polygon fill="#FEFECE" filter="url(#f1td8vg3kahq1t)" points="146.75,734.4531,249.75,734.4531,261.75,746.4531,249.75,758.4531,146.75,758.4531,134.75,746.4531,146.75,734.4531" style="stroke: #A80036; stroke-width: 1.5;"/><text fill="#000000" font-family="sans-serif" font-size="11" lengthAdjust="spacingAndGlyphs" textLength="103" x="146.75" y="750.2612">Connect to server</text><text fill="#000000" font-family="sans-serif" font-size="11" lengthAdjust="spacingAndGlyphs" textLength="13" x="121.75" y="743.8589">ok</text><text fill="#000000" font-family="sans-serif" font-size="11" lengthAdjust="spacingAndGlyphs" textLength="36" x="261.75" y="743.8589">failure</text><rect fill="#FEFECE" filter="url(#f1td8vg3kahq1t)" height="33.9688" rx="12.5" ry="12.5" style="stroke: #A80036; stroke-width: 1.5;" width="81" x="84.25" y="768.4531"/><text fill="#000000" font-family="sans-serif" font-size="12" lengthAdjust="spacingAndGlyphs" textLength="61" x="94.25" y="789.5918">Send data</text><rect fill="#FEFECE" filter="url(#f1td8vg3kahq1t)" height="33.9688" rx="12.5" ry="12.5" style="stroke: #A80036; stroke-width: 1.5;" width="94" x="224.75" y="768.4531"/><text fill="#000000" font-family="sans-serif" font-size="12" lengthAdjust="spacingAndGlyphs" textLength="74" x="234.75" y="789.5918">Hard reboot</text><ellipse cx="271.75" cy="832.4219" fill="#FFFFFF" filter="url(#f1td8vg3kahq1t)" rx="10" ry="10" style="stroke: #000000; stroke-width: 1.5;"/><line style="stroke: #000000; stroke-width: 2.5;" x1="265.5628" x2="277.9372" y1="826.2347" y2="838.6091"/><line style="stroke: #000000; stroke-width: 2.5;" x1="277.9372" x2="265.5628" y1="826.2347" y2="838.6091"/><polygon fill="#FEFECE" filter="url(#f1td8vg3kahq1t)" points="198.25,317.4844,210.25,329.4844,198.25,341.4844,186.25,329.4844,198.25,317.4844" style="stroke: #A80036; stroke-width: 1.5;"/><polygon fill="#FEFECE" filter="url(#f1td8vg3kahq1t)" points="137.25,874.4219,259.25,874.4219,271.25,886.4219,259.25,898.4219,137.25,898.4219,125.25,886.4219,137.25,874.4219" style="stroke: #A80036; stroke-width: 1.5;"/><text fill="#000000" font-family="sans-serif" font-size="11" lengthAdjust="spacingAndGlyphs" textLength="122" x="137.25" y="890.23">Sleep for 60 seconds</text><line style="stroke: #A80036; stroke-width: 1.5;" x1="198.25" x2="198.25" y1="50.9531" y2="70.9531"/><polygon fill="#A80036" points="194.25,60.9531,198.25,70.9531,202.25,60.9531,198.25,64.9531" style="stroke: #A80036; stroke-width: 1.0;"/><line style="stroke: #A80036; stroke-width: 1.5;" x1="279" x2="279" y1="219.1875" y2="239.1875"/><polygon fill="#A80036" points="275,229.1875,279,239.1875,283,229.1875,279,233.1875" style="stroke: #A80036; stroke-width: 1.0;"/><line style="stroke: #A80036; stroke-width: 1.5;" x1="141.75" x2="117.5" y1="163.2188" y2="163.2188"/><line style="stroke: #A80036; stroke-width: 1.5;" x1="117.5" x2="117.5" y1="163.2188" y2="185.2188"/><polygon fill="#A80036" points="113.5,175.2188,117.5,185.2188,121.5,175.2188,117.5,179.2188" style="stroke: #A80036; stroke-width: 1.0;"/><line style="stroke: #A80036; stroke-width: 1.5;" x1="254.75" x2="279" y1="163.2188" y2="163.2188"/><line style="stroke: #A80036; stroke-width: 1.5;" x1="279" x2="279" y1="163.2188" y2="185.2188"/><polygon fill="#A80036" points="275,175.2188,279,185.2188,283,175.2188,279,179.2188" style="stroke: #A80036; stroke-width: 1.0;"/><line style="stroke: #A80036; stroke-width: 1.5;" x1="117.5" x2="117.5" y1="219.1875" y2="264.1875"/><line style="stroke: #A80036; stroke-width: 1.5;" x1="117.5" x2="198.25" y1="264.1875" y2="264.1875"/><line style="stroke: #A80036; stroke-width: 1.5;" x1="198.25" x2="198.25" y1="264.1875" y2="317.4844"/><polygon fill="#A80036" points="194.25,307.4844,198.25,317.4844,202.25,307.4844,198.25,311.4844" style="stroke: #A80036; stroke-width: 1.0;"/><line style="stroke: #A80036; stroke-width: 1.5;" x1="198.25" x2="198.25" y1="104.9219" y2="151.2188"/><polygon fill="#A80036" points="194.25,141.2188,198.25,151.2188,202.25,141.2188,198.25,145.2188" style="stroke: #A80036; stroke-width: 1.0;"/><line style="stroke: #A80036; stroke-width: 1.5;" x1="198.25" x2="198.25" y1="395.4531" y2="415.4531"/><polygon fill="#A80036" points="194.25,405.4531,198.25,415.4531,202.25,405.4531,198.25,409.4531" style="stroke: #A80036; stroke-width: 1.0;"/><line style="stroke: #A80036; stroke-width: 1.5;" x1="198.25" x2="198.25" y1="449.4219" y2="469.4219"/><polygon fill="#A80036" points="194.25,459.4219,198.25,469.4219,202.25,459.4219,198.25,463.4219" style="stroke: #A80036; stroke-width: 1.0;"/><line style="stroke: #A80036; stroke-width: 1.5;" x1="198.25" x2="198.25" y1="503.3906" y2="524.1055"/><polygon fill="#A80036" points="194.25,514.1055,198.25,524.1055,202.25,514.1055,198.25,518.1055" style="stroke: #A80036; stroke-width: 1.0;"/><line style="stroke: #A80036; stroke-width: 1.5;" x1="198.25" x2="198.25" y1="558.0742" y2="589.5039"/><polygon fill="#A80036" points="194.25,579.5039,198.25,589.5039,202.25,579.5039,198.25,583.5039" style="stroke: #A80036; stroke-width: 1.0;"/><line style="stroke: #A80036; stroke-width: 1.5;" x1="271.75" x2="271.75" y1="802.4219" y2="822.4219"/><polygon fill="#A80036" points="267.75,812.4219,271.75,822.4219,275.75,812.4219,271.75,816.4219" style="stroke: #A80036; stroke-width: 1.0;"/><line style="stroke: #A80036; stroke-width: 1.5;" x1="134.75" x2="124.75" y1="746.4531" y2="746.4531"/><line style="stroke: #A80036; stroke-width: 1.5;" x1="124.75" x2="124.75" y1="746.4531" y2="768.4531"/><polygon fill="#A80036" points="120.75,758.4531,124.75,768.4531,128.75,758.4531,124.75,762.4531" style="stroke: #A80036; stroke-width: 1.0;"/><line style="stroke: #A80036; stroke-width: 1.5;" x1="261.75" x2="271.75" y1="746.4531" y2="746.4531"/><line style="stroke: #A80036; stroke-width: 1.5;" x1="271.75" x2="271.75" y1="746.4531" y2="768.4531"/><polygon fill="#A80036" points="267.75,758.4531,271.75,768.4531,275.75,758.4531,271.75,762.4531" style="stroke: #A80036; stroke-width: 1.0;"/><line style="stroke: #A80036; stroke-width: 1.5;" x1="124.75" x2="124.75" y1="802.4219" y2="847.4219"/><line style="stroke: #A80036; stroke-width: 1.5;" x1="124.75" x2="198.25" y1="847.4219" y2="847.4219"/><line style="stroke: #A80036; stroke-width: 1.5;" x1="198.25" x2="198.25" y1="847.4219" y2="874.4219"/><polygon fill="#A80036" points="194.25,864.4219,198.25,874.4219,202.25,864.4219,198.25,868.4219" style="stroke: #A80036; stroke-width: 1.0;"/><line style="stroke: #A80036; stroke-width: 1.5;" x1="198.25" x2="198.25" y1="714.4531" y2="734.4531"/><polygon fill="#A80036" points="194.25,724.4531,198.25,734.4531,202.25,724.4531,198.25,728.4531" style="stroke: #A80036; stroke-width: 1.0;"/><line style="stroke: #A80036; stroke-width: 1.5;" x1="198.25" x2="198.25" y1="623.4727" y2="680.4844"/><polygon fill="#A80036" points="194.25,670.4844,198.25,680.4844,202.25,670.4844,198.25,674.4844" style="stroke: #A80036; stroke-width: 1.0;"/><line style="stroke: #A80036; stroke-width: 1.5;" x1="198.25" x2="198.25" y1="341.4844" y2="361.4844"/><polygon fill="#A80036" points="194.25,351.4844,198.25,361.4844,202.25,351.4844,198.25,355.4844" style="stroke: #A80036; stroke-width: 1.0;"/><line style="stroke: #A80036; stroke-width: 1.5;" x1="271.25" x2="388.75" y1="886.4219" y2="886.4219"/><polygon fill="#A80036" points="384.75,612.4531,388.75,602.4531,392.75,612.4531,388.75,608.4531" style="stroke: #A80036; stroke-width: 1.5;"/><line style="stroke: #A80036; stroke-width: 1.5;" x1="388.75" x2="388.75" y1="329.4844" y2="886.4219"/><line style="stroke: #A80036; stroke-width: 1.5;" x1="388.75" x2="210.25" y1="329.4844" y2="329.4844"/><polygon fill="#A80036" points="220.25,325.4844,210.25,329.4844,220.25,333.4844,216.25,329.4844" style="stroke: #A80036; stroke-width: 1.0;"/><!--MD5=[a4f3c8fbaff51275d4c7d2c0432f82f1]
@startuml
title Weather Station cycle

start

:Boot;

partition Setup {
    if (Connect to WiFi) then (success)
        :Set up system configuration;
    else (failure)
        :Hard reboot;
        end
    endif
}

partition "Capture Loop" {
    repeat
        :Read BME280;
        :Read Rainfall;
        :Read UV;
        :Read wind speed;
        note right: Refer to\nWind speed\ndiagram
        :Read air quality;
        note right: Refer to\nAir quality\ndiagram
        partition "Transmit data" {
            :Assemble JSON blob;
            if(Connect to server) then (ok)
                :Send data;
            else(failure)
                :Hard reboot;
                end
            endif
        }
    repeat while(Sleep for 60 seconds)
    
}
@enduml

PlantUML version 1.2020.20beta13(Unknown compile time)
(GPL source distribution)
Java Runtime: Java(TM) SE Runtime Environment
JVM: Java HotSpot(TM) 64-Bit Server VM
Default Encoding: UTF-8
Language: en
Country: US
--></g></svg>