<?xml version="1.0" encoding="UTF-8" standalone="no"?><svg xmlns="http://www.w3.org/2000/svg" xmlns:xlink="http://www.w3.org/1999/xlink" contentScriptType="application/ecmascript" contentStyleType="text/css" height="520px" preserveAspectRatio="none" style="width:262px;height:520px;" version="1.1" viewBox="0 0 262 520" width="262px" zoomAndPan="magnify"><defs><filter height="300%" id="f1bg0nglwllins" width="300%" x="-1" y="-1"><feGaussianBlur result="blurOut" stdDeviation="2.0"/><feColorMatrix in="blurOut" result="blurOut2" type="matrix" values="0 0 0 0 0 0 0 0 0 0 0 0 0 0 0 0 0 0 .4 0"/><feOffset dx="4.0" dy="4.0" in="blurOut2" result="blurOut3"/><feBlend in="SourceGraphic" in2="blurOut3" mode="normal"/></filter></defs><g><text fill="#000000" font-family="sans-serif" font-size="18" lengthAdjust="spacingAndGlyphs" textLength="156" x="52" y="26.708">Read wind speed</text><ellipse cx="116" cy="40.9531" fill="#000000" filter="url(#f1bg0nglwllins)" rx="10" ry="10" style="stroke: none; stroke-width: 1.0;"/><rect fill="#FEFECE" filter="url(#f1bg0nglwllins)" height="33.9688" rx="12.5" ry="12.5" style="stroke: #A80036; stroke-width: 1.5;" width="83" x="74.5" y="70.9531"/><text fill="#000000" font-family="sans-serif" font-size="12" lengthAdjust="spacingAndGlyphs" textLength="63" x="84.5" y="92.0918">Start timer</text><rect fill="#FEFECE" filter="url(#f1bg0nglwllins)" height="47.9375" rx="12.5" ry="12.5" style="stroke: #A80036; stroke-width: 1.5;" width="189" x="21.5" y="124.9219"/><text fill="#000000" font-family="sans-serif" font-size="12" lengthAdjust="spacingAndGlyphs" textLength="169" x="31.5" y="146.0605">Set anemometer initial state</text><text fill="#000000" font-family="sans-serif" font-size="12" lengthAdjust="spacingAndGlyphs" textLength="88" x="31.5" y="160.0293">Set counter=0</text><rect fill="#FEFECE" filter="url(#f1bg0nglwllins)" height="33.9688" rx="12.5" ry="12.5" style="stroke: #A80036; stroke-width: 1.5;" width="130" x="51" y="285.2617"/><text fill="#000000" font-family="sans-serif" font-size="12" lengthAdjust="spacingAndGlyphs" textLength="110" x="61" y="306.4004">Increment counter</text><polygon fill="#FEFECE" filter="url(#f1bg0nglwllins)" points="32,236.8594,200,236.8594,212,248.8594,200,260.8594,32,260.8594,20,248.8594,32,236.8594" style="stroke: #A80036; stroke-width: 1.5;"/><text fill="#000000" font-family="sans-serif" font-size="11" lengthAdjust="spacingAndGlyphs" textLength="21" x="120" y="271.0698">yes</text><text fill="#000000" font-family="sans-serif" font-size="11" lengthAdjust="spacingAndGlyphs" textLength="168" x="32" y="252.6675">Anemometer state changed?</text><text fill="#000000" font-family="sans-serif" font-size="11" lengthAdjust="spacingAndGlyphs" textLength="14" x="212" y="246.2651">no</text><polygon fill="#FEFECE" filter="url(#f1bg0nglwllins)" points="116,339.2305,128,351.2305,116,363.2305,104,351.2305,116,339.2305" style="stroke: #A80036; stroke-width: 1.5;"/><polygon fill="#FEFECE" filter="url(#f1bg0nglwllins)" points="116,192.8594,128,204.8594,116,216.8594,104,204.8594,116,192.8594" style="stroke: #A80036; stroke-width: 1.5;"/><polygon fill="#FEFECE" filter="url(#f1bg0nglwllins)" points="60,383.2305,172,383.2305,184,395.2305,172,407.2305,60,407.2305,48,395.2305,60,383.2305" style="stroke: #A80036; stroke-width: 1.5;"/><text fill="#000000" font-family="sans-serif" font-size="11" lengthAdjust="spacingAndGlyphs" textLength="112" x="60" y="399.0386">timer &lt; 10 seconds</text><rect fill="#FEFECE" filter="url(#f1bg0nglwllins)" height="33.9688" rx="12.5" ry="12.5" style="stroke: #A80036; stroke-width: 1.5;" width="208" x="12" y="427.2305"/><text fill="#000000" font-family="sans-serif" font-size="12" lengthAdjust="spacingAndGlyphs" textLength="188" x="22" y="448.3691">Convert counter to wind speed</text><ellipse cx="116" cy="492.1992" fill="#FFFFFF" filter="url(#f1bg0nglwllins)" rx="11" ry="11" style="stroke: #000000; stroke-width: 1.0;"/><ellipse cx="116" cy="492.1992" fill="#000000" rx="6" ry="6" style="stroke: #7F7F7F; stroke-width: 1.0;"/><line style="stroke: #A80036; stroke-width: 1.5;" x1="116" x2="116" y1="50.9531" y2="70.9531"/><polygon fill="#A80036" points="112,60.9531,116,70.9531,120,60.9531,116,64.9531" style="stroke: #A80036; stroke-width: 1.0;"/><line style="stroke: #A80036; stroke-width: 1.5;" x1="116" x2="116" y1="104.9219" y2="124.9219"/><polygon fill="#A80036" points="112,114.9219,116,124.9219,120,114.9219,116,118.9219" style="stroke: #A80036; stroke-width: 1.0;"/><line style="stroke: #A80036; stroke-width: 1.5;" x1="116" x2="116" y1="260.8594" y2="285.2617"/><polygon fill="#A80036" points="112,275.2617,116,285.2617,120,275.2617,116,279.2617" style="stroke: #A80036; stroke-width: 1.0;"/><line style="stroke: #A80036; stroke-width: 1.5;" x1="212" x2="224" y1="248.8594" y2="248.8594"/><polygon fill="#A80036" points="220,292.2461,224,302.2461,228,292.2461,224,296.2461" style="stroke: #A80036; stroke-width: 1.5;"/><line style="stroke: #A80036; stroke-width: 1.5;" x1="224" x2="224" y1="248.8594" y2="351.2305"/><line style="stroke: #A80036; stroke-width: 1.5;" x1="224" x2="128" y1="351.2305" y2="351.2305"/><polygon fill="#A80036" points="138,347.2305,128,351.2305,138,355.2305,134,351.2305" style="stroke: #A80036; stroke-width: 1.0;"/><line style="stroke: #A80036; stroke-width: 1.5;" x1="116" x2="116" y1="319.2305" y2="339.2305"/><polygon fill="#A80036" points="112,329.2305,116,339.2305,120,329.2305,116,333.2305" style="stroke: #A80036; stroke-width: 1.0;"/><line style="stroke: #A80036; stroke-width: 1.5;" x1="116" x2="116" y1="216.8594" y2="236.8594"/><polygon fill="#A80036" points="112,226.8594,116,236.8594,120,226.8594,116,230.8594" style="stroke: #A80036; stroke-width: 1.0;"/><line style="stroke: #A80036; stroke-width: 1.5;" x1="184" x2="236" y1="395.2305" y2="395.2305"/><polygon fill="#A80036" points="232,312.2461,236,302.2461,240,312.2461,236,308.2461" style="stroke: #A80036; stroke-width: 1.5;"/><line style="stroke: #A80036; stroke-width: 1.5;" x1="236" x2="236" y1="204.8594" y2="395.2305"/><line style="stroke: #A80036; stroke-width: 1.5;" x1="236" x2="128" y1="204.8594" y2="204.8594"/><polygon fill="#A80036" points="138,200.8594,128,204.8594,138,208.8594,134,204.8594" style="stroke: #A80036; stroke-width: 1.0;"/><line style="stroke: #A80036; stroke-width: 1.5;" x1="116" x2="116" y1="363.2305" y2="383.2305"/><polygon fill="#A80036" points="112,373.2305,116,383.2305,120,373.2305,116,377.2305" style="stroke: #A80036; stroke-width: 1.0;"/><line style="stroke: #A80036; stroke-width: 1.5;" x1="116" x2="116" y1="172.8594" y2="192.8594"/><polygon fill="#A80036" points="112,182.8594,116,192.8594,120,182.8594,116,186.8594" style="stroke: #A80036; stroke-width: 1.0;"/><line style="stroke: #A80036; stroke-width: 1.5;" x1="116" x2="116" y1="407.2305" y2="427.2305"/><polygon fill="#A80036" points="112,417.2305,116,427.2305,120,417.2305,116,421.2305" style="stroke: #A80036; stroke-width: 1.0;"/><line style="stroke: #A80036; stroke-width: 1.5;" x1="116" x2="116" y1="461.1992" y2="481.1992"/><polygon fill="#A80036" points="112,471.1992,116,481.1992,120,471.1992,116,475.1992" style="stroke: #A80036; stroke-width: 1.0;"/><!--MD5=[521d8a8ee2e24e70d9d34bcb387772d6]
@startuml
title Read wind speed

start

:Start timer;
:Set anemometer initial state\nSet counter=0;
repeat
    if(Anemometer state changed?) then (yes)
        :Increment counter;
    else(no)
    endif
repeat while(timer < 10 seconds)
:Convert counter to wind speed;

stop
@enduml

PlantUML version 1.2020.20beta13(Unknown compile time)
(GPL source distribution)
Java Runtime: Java(TM) SE Runtime Environment
JVM: Java HotSpot(TM) 64-Bit Server VM
Default Encoding: UTF-8
Language: en
Country: US
--></g></svg>